<?xml version="1.0" standalone="no"?>
<!DOCTYPE svg PUBLIC "-//W3C//DTD SVG 20010904//EN"
 "http://www.w3.org/TR/2001/REC-SVG-20010904/DTD/svg10.dtd">
<svg version="1.0" xmlns="http://www.w3.org/2000/svg"
 width="716.000000pt" height="716.000000pt" viewBox="0 0 716.000000 716.000000"
 preserveAspectRatio="xMidYMid meet">
<metadata>
Created by potrace 1.14, written by Peter Selinger 2001-2017
</metadata>
<g transform="translate(0.000000,716.000000) scale(0.100000,-0.100000)"
fill="#000000" stroke="none">
<path d="M3398 7145 c-2 -2 -49 -6 -106 -9 -56 -4 -110 -9 -120 -10 -9 -2 -42
-7 -73 -10 -31 -4 -66 -8 -77 -11 -11 -2 -35 -6 -53 -9 -19 -3 -68 -12 -109
-21 -41 -9 -86 -19 -100 -21 -47 -9 -243 -65 -334 -96 -204 -68 -489 -199
-650 -296 -37 -23 -70 -42 -72 -42 -4 0 -142 -93 -228 -154 -17 -11 -65 -48
-106 -80 -638 -505 -1072 -1180 -1269 -1971 -11 -44 -22 -93 -25 -110 -3 -16
-7 -39 -9 -50 -19 -81 -41 -243 -54 -395 -14 -160 -7 -584 12 -701 2 -13 6
-42 9 -64 11 -85 31 -205 48 -275 5 -25 12 -58 15 -74 10 -60 86 -306 135
-436 131 -351 349 -728 577 -1000 25 -30 55 -66 66 -79 27 -35 289 -297 345
-347 326 -286 721 -520 1132 -670 109 -39 269 -90 315 -98 11 -2 37 -9 59 -15
21 -5 59 -15 84 -20 43 -10 58 -13 139 -27 18 -3 43 -8 55 -10 11 -2 41 -7 66
-10 25 -3 56 -7 70 -10 153 -26 778 -25 880 1 8 2 35 6 60 9 25 3 55 8 66 10
12 2 38 7 58 10 67 11 190 37 266 57 157 42 186 50 202 59 10 6 22 10 28 10
17 0 238 85 320 123 41 19 100 46 131 60 84 39 274 147 375 213 100 65 317
228 378 283 107 96 178 165 256 246 108 112 108 112 153 168 21 25 43 52 50
59 15 16 76 99 145 195 211 297 395 679 498 1036 37 130 90 357 98 422 3 22 8
56 11 75 3 19 8 55 10 80 3 25 8 70 11 100 13 111 19 457 9 560 -2 25 -7 74
-10 110 -49 508 -205 1003 -450 1430 -21 36 -43 74 -49 85 -186 323 -542 720
-886 987 -80 61 -161 118 -169 118 -5 0 -11 4 -13 8 -7 17 -231 150 -383 227
-173 87 -312 145 -500 207 -122 40 -357 101 -430 111 -22 4 -65 11 -95 16 -51
10 -73 13 -175 25 -121 15 -179 18 -372 21 -117 1 -214 1 -215 0z"/>
</g>
</svg>
