<?xml version="1.0" encoding="UTF-8" standalone="no"?>
<!-- Created with Inkscape (http://www.inkscape.org/) -->

<svg
   xmlns:dc="http://purl.org/dc/elements/1.1/"
   xmlns:cc="http://creativecommons.org/ns#"
   xmlns:rdf="http://www.w3.org/1999/02/22-rdf-syntax-ns#"
   xmlns:svg="http://www.w3.org/2000/svg"
   xmlns="http://www.w3.org/2000/svg"
   xmlns:sodipodi="http://sodipodi.sourceforge.net/DTD/sodipodi-0.dtd"
   xmlns:inkscape="http://www.inkscape.org/namespaces/inkscape"
   width="376.3259"
   height="78"
   viewBox="0 0 99.56956 20.637499"
   version="1.1"
   id="svg6314"
   inkscape:version="0.92.2 5c3e80d, 2017-08-06"
   sodipodi:docname="oli-logo-78px-high.svg">
  <defs
     id="defs6308" />
  <sodipodi:namedview
     id="base"
     pagecolor="#ffffff"
     bordercolor="#666666"
     borderopacity="1.0"
     inkscape:pageopacity="0.0"
     inkscape:pageshadow="2"
     inkscape:zoom="5"
     inkscape:cx="194.48321"
     inkscape:cy="62.861271"
     inkscape:document-units="mm"
     inkscape:current-layer="g6216"
     showgrid="false"
     fit-margin-top="5"
     fit-margin-left="5"
     fit-margin-right="5"
     fit-margin-bottom="5"
     units="px"
     inkscape:window-width="2560"
     inkscape:window-height="1418"
     inkscape:window-x="1920"
     inkscape:window-y="0"
     inkscape:window-maximized="1"
     showguides="false">
    <inkscape:grid
       type="xygrid"
       id="grid7501" />
  </sodipodi:namedview>
  <metadata
     id="metadata6311">
    <rdf:RDF>
      <cc:Work
         rdf:about="">
        <dc:format>image/svg+xml</dc:format>
        <dc:type
           rdf:resource="http://purl.org/dc/dcmitype/StillImage" />
        <dc:title></dc:title>
      </cc:Work>
    </rdf:RDF>
  </metadata>
  <g
     inkscape:label="Layer 1"
     inkscape:groupmode="layer"
     id="layer1"
     transform="translate(17.602376,-190.18503)">
    <g
       transform="matrix(0.35277777,0,0,0.35277777,-92.267243,-7.5620617)"
       id="g6216">
      <path
         inkscape:connector-curvature="0"
         id="path4549"
         d="m 240.07488,564.29296 c 13.63054,0 24.67878,11.04824 24.67878,24.67643 0,13.62585 -11.04824,24.67174 -24.67878,24.67174 -13.6282,0 -24.67643,-11.04589 -24.67643,-24.67174 0,-13.62819 11.04823,-24.67643 24.67643,-24.67643"
         style="fill:#000000;fill-opacity:1;fill-rule:evenodd;stroke:none;stroke-width:0.60152036" />
      <path
         inkscape:connector-curvature="0"
         id="path4551"
         d="m 227.38186,586.14037 12.69772,7.57539 12.69537,-7.57304 c 3.24962,2.27215 5.86717,5.39253 7.5237,9.0416 -2.58701,8.73145 -10.66289,15.0991 -20.22847,15.0991 -9.56324,0 -17.63441,-6.36061 -20.22613,-15.08265 1.65888,-3.65612 4.27879,-6.7859 7.53781,-9.0604"
         style="fill:#477fbd;fill-opacity:1;fill-rule:evenodd;stroke:none;stroke-width:0.60152036" />
      <path
         inkscape:connector-curvature="0"
         id="path4553"
         d="m 240.07488,582.39027 8.37429,-5.01424 6.58852,3.93103 -14.95811,8.92412 -14.96047,-8.92412 6.58853,-3.92868 z m 0,0"
         style="fill:#97ca51;fill-opacity:1;fill-rule:evenodd;stroke:none;stroke-width:0.60152036" />
      <path
         inkscape:connector-curvature="0"
         id="path4555"
         d="m 240.07723,569.6949 8.91707,4.45031 -8.91707,4.45266 -8.91707,-4.45266 z m 0,0"
         style="fill:#ffffff;fill-opacity:1;fill-rule:evenodd;stroke:none;stroke-width:0.60152036" />
      <g
         id="g7580"
         transform="translate(-2.1992596,-7.4125499)">
        <path
           style="fill:#000000;fill-opacity:1;fill-rule:nonzero;stroke:none;stroke-width:0.60152036"
           d="m 284.66257,584.87154 c -0.51928,0.97512 -0.75894,2.29565 -0.75894,4.1143 0,2.59876 0.43469,4.22239 1.34402,4.87091 0.47698,0.34775 1.08086,0.52163 1.79751,0.52163 2.09827,0 2.98646,-1.60249 2.98646,-5.43483 0,-1.5367 -0.12924,-2.6434 -0.39005,-3.48694 -0.23732,-0.7566 -1.03856,-1.9056 -2.64106,-1.9056 -1.01741,0 -1.90559,0.51928 -2.33794,1.32053 m 8.85598,3.98507 c 0,3.4 -1.17014,5.95411 -3.35535,7.14541 -0.90933,0.49813 -1.75522,0.69315 -3.00995,0.69315 -2.2745,0 -3.74776,-0.62972 -4.89441,-2.12412 -1.14665,-1.4709 -1.73172,-3.3765 -1.73172,-5.58521 0,-3.24727 1.23359,-5.84603 3.4,-7.03732 0.88818,-0.47463 1.99019,-0.73545 3.11804,-0.73545 4.00387,0 6.47339,2.92301 6.47339,7.64354"
           id="path4601"
           inkscape:connector-curvature="0" />
        <path
           style="fill:#000000;fill-opacity:1;fill-rule:nonzero;stroke:none;stroke-width:0.60152036"
           d="m 299.90735,594.39952 c 1.42862,0 1.99254,-0.97511 1.99254,-3.50808 0,-1.05971 -0.0869,-1.9056 -0.28196,-2.44602 -0.21617,-0.60623 -0.67201,-0.93284 -1.38631,-0.93284 -0.71431,0 -1.40747,0.30312 -1.92675,0.84589 v 5.39019 c 0.39005,0.32661 1.01742,0.65086 1.60248,0.65086 m -2.01368,-9.24602 c 0.10809,0.39005 0.17388,0.69316 0.19503,1.03856 0.49813,-0.60622 1.60249,-1.03856 2.72798,-1.03856 0.7801,0 1.58135,0.26081 2.18757,0.67201 1.19129,0.80125 2.05597,2.22986 2.05597,4.78397 0,2.38258 -0.39005,3.59502 -1.53669,4.82861 -0.75895,0.80124 -1.75522,1.25708 -2.96766,1.25708 -0.86468,0 -1.68708,-0.21617 -2.31679,-0.58507 0.0446,0.25846 0.0446,0.58507 0.0446,0.90933 v 3.46344 l -2.79378,0.73545 v -12.81755 c 0,-1.44976 -0.0211,-1.86095 -0.17388,-2.79143 z m 0,0"
           id="path4603"
           inkscape:connector-curvature="0" />
        <path
           style="fill:#000000;fill-opacity:1;fill-rule:nonzero;stroke:none;stroke-width:0.60152036"
           d="m 313.03037,589.70015 v -0.12923 c 0,-0.8224 -0.0869,-1.25709 -0.34775,-1.66829 -0.28196,-0.43234 -0.69316,-0.64851 -1.27823,-0.64851 -1.10201,0 -1.73173,0.86469 -1.73173,2.40373 v 0.0423 z m 2.87837,5.52177 c -1.27588,1.03856 -2.6199,1.53669 -4.17775,1.53669 -3.18382,0 -5.2398,-2.251 -5.2398,-5.73793 0,-1.99019 0.41119,-3.31307 1.38396,-4.39392 0.91168,-1.01742 2.01603,-1.49441 3.48694,-1.49441 1.27823,0 2.49067,0.43234 3.20498,1.17015 1.01741,1.03856 1.4709,2.53296 1.4709,4.84976 v 0.66966 h -6.4076 v 0.0869 c 0,1.71057 0.84354,2.68569 2.33794,2.68569 0.99627,0 1.92674,-0.3689 2.81493,-1.10436 z m 0,0"
           id="path4605"
           inkscape:connector-curvature="0" />
        <path
           style="fill:#000000;fill-opacity:1;fill-rule:nonzero;stroke:none;stroke-width:0.60152036"
           d="m 319.93846,585.09006 c 0.25846,0.45349 0.41119,0.93048 0.41119,1.38396 0.43234,-0.3031 0.80124,-0.56157 1.27823,-0.82239 0.58272,-0.30311 1.34168,-0.47698 1.99019,-0.47698 1.23593,0 2.31679,0.65086 2.66455,1.60249 0.15038,0.41119 0.21617,0.88818 0.21617,1.58133 v 8.09703 h -2.85957 v -7.20884 c 0,-1.25709 -0.21618,-1.62364 -0.97278,-1.62364 -0.58507,0 -1.34167,0.3877 -2.01368,0.99392 v 7.83856 h -2.90186 v -8.03123 c 0,-0.95398 -0.12924,-1.86331 -0.39005,-2.59876 z m 0,0"
           id="path4607"
           inkscape:connector-curvature="0" />
        <path
           style="fill:#000000;fill-opacity:1;fill-rule:nonzero;stroke:none;stroke-width:0.60152036"
           d="m 336.13486,581.4081 v 12.53559 h 5.39254 l -0.54278,2.51181 h -7.94665 v -15.0474 z m 0,0"
           id="path4609"
           inkscape:connector-curvature="0" />
        <path
           style="fill:#000000;fill-opacity:1;fill-rule:nonzero;stroke:none;stroke-width:0.60152036"
           d="m 348.08538,589.70015 v -0.12923 c 0,-0.8224 -0.0869,-1.25709 -0.3454,-1.66829 -0.28197,-0.43234 -0.69316,-0.64851 -1.27823,-0.64851 -1.10436,0 -1.73173,0.86469 -1.73173,2.40373 v 0.0423 z m 2.88072,5.52177 c -1.27823,1.03856 -2.6199,1.53669 -4.1801,1.53669 -3.18148,0 -5.23981,-2.251 -5.23981,-5.73793 0,-1.99019 0.4112,-3.31307 1.38632,-4.39392 0.90933,-1.01742 2.01368,-1.49441 3.48694,-1.49441 1.27588,0 2.48832,0.43234 3.20262,1.17015 1.01742,1.03856 1.47326,2.53296 1.47326,4.84976 v 0.66966 h -6.40995 v 0.0869 c 0,1.71057 0.84589,2.68569 2.33794,2.68569 0.99627,0 1.92909,-0.3689 2.81727,-1.10436 z m 0,0"
           id="path4611"
           inkscape:connector-curvature="0" />
        <path
           style="fill:#000000;fill-opacity:1;fill-rule:nonzero;stroke:none;stroke-width:0.60152036"
           d="m 358.21959,591.60574 c -2.01369,0 -2.70684,0.3689 -2.70684,1.68943 0,0.86704 0.54043,1.44976 1.27823,1.44976 0.54043,0 1.0832,-0.28196 1.51554,-0.7566 l 0.0423,-2.38259 z m -3.76655,-5.82487 c 1.08085,-0.45349 2.01133,-0.64852 3.03109,-0.64852 1.86096,0 3.13919,0.69316 3.57153,1.92675 0.15273,0.45584 0.21617,0.80124 0.19502,1.99253 l -0.0634,3.72426 v 0.19502 c 0,1.1913 0.19268,1.64479 1.03857,2.27216 l -1.5367,1.77636 c -0.67201,-0.28197 -1.27823,-0.7801 -1.56019,-1.34402 -0.21618,0.21852 -0.45349,0.43469 -0.67201,0.58507 -0.54043,0.39005 -1.32053,0.60622 -2.22986,0.60622 -2.46717,0 -3.80884,-1.25473 -3.80884,-3.46344 0,-2.59876 1.79516,-3.8112 5.32439,-3.8112 0.21617,0 0.4112,0 0.65086,0.0211 v -0.45349 c 0,-1.23359 -0.23966,-1.64478 -1.29937,-1.64478 -0.93048,0 -2.01369,0.45349 -3.20498,1.25473 l -1.23359,-2.07947 c 0.58508,-0.36656 1.01742,-0.58272 1.79752,-0.90933"
           id="path4613"
           inkscape:connector-curvature="0" />
        <path
           style="fill:#000000;fill-opacity:1;fill-rule:nonzero;stroke:none;stroke-width:0.60152036"
           d="m 366.037,585.11121 c 0.26082,0.45348 0.4112,0.95162 0.45584,1.57899 0.4112,-0.56158 1.10435,-1.1678 1.64478,-1.40747 0.23732,-0.10808 0.62737,-0.17152 0.95398,-0.17152 0.43234,0 0.62737,0.0423 1.08085,0.23731 l -0.80124,2.55411 c -0.27961,-0.15038 -0.51928,-0.21616 -0.84354,-0.21616 -0.65086,0 -1.23358,0.3031 -1.77636,0.93282 v 7.83621 h -2.89952 v -7.40387 c 0,-1.4944 -0.17387,-2.6199 -0.41354,-3.24727 z m 0,0"
           id="path4615"
           inkscape:connector-curvature="0" />
        <path
           style="fill:#000000;fill-opacity:1;fill-rule:nonzero;stroke:none;stroke-width:0.60152036"
           d="m 373.89671,585.09006 c 0.26082,0.45349 0.4112,0.93048 0.4112,1.38396 0.43469,-0.3031 0.80124,-0.56157 1.27823,-0.82239 0.58507,-0.30311 1.34402,-0.47698 1.99253,-0.47698 1.23359,0 2.3168,0.65086 2.66221,1.60249 0.15272,0.41119 0.21852,0.88818 0.21852,1.58133 v 8.09703 h -2.85958 v -7.20884 c 0,-1.25709 -0.21617,-1.62364 -0.97512,-1.62364 -0.58272,0 -1.34167,0.3877 -2.01133,0.99392 v 7.83856 h -2.90187 v -8.03123 c 0,-0.95398 -0.13158,-1.86331 -0.39005,-2.59876 z m 0,0"
           id="path4617"
           inkscape:connector-curvature="0" />
        <path
           style="fill:#000000;fill-opacity:1;fill-rule:nonzero;stroke:none;stroke-width:0.60152036"
           d="m 386.34771,585.11121 v 11.34429 h -2.89951 v -10.89081 z m 0.34776,-2.79378 c 0,0.99627 -0.80125,1.79751 -1.79752,1.79751 -0.97511,0 -1.77401,-0.80124 -1.77401,-1.79751 0,-0.99627 0.82239,-1.79752 1.81631,-1.79752 0.97512,0 1.75522,0.80125 1.75522,1.79752"
           id="path4619"
           inkscape:connector-curvature="0" />
        <path
           style="fill:#000000;fill-opacity:1;fill-rule:nonzero;stroke:none;stroke-width:0.60152036"
           d="m 391.3502,585.09006 c 0.26082,0.45349 0.4112,0.93048 0.4112,1.38396 0.43469,-0.3031 0.80124,-0.56157 1.27823,-0.82239 0.58507,-0.30311 1.34167,-0.47698 1.99253,-0.47698 1.23359,0 2.3168,0.65086 2.6622,1.60249 0.15273,0.41119 0.21618,0.88818 0.21618,1.58133 v 8.09703 h -2.85723 v -7.20884 c 0,-1.25709 -0.21617,-1.62364 -0.97512,-1.62364 -0.58507,0 -1.34167,0.3877 -2.01368,0.99392 v 7.83856 h -2.90187 v -8.03123 c 0,-0.95398 -0.12923,-1.86331 -0.38769,-2.59876 z m 0,0"
           id="path4621"
           inkscape:connector-curvature="0" />
        <path
           style="fill:#000000;fill-opacity:1;fill-rule:nonzero;stroke:none;stroke-width:0.60152036"
           d="m 403.4558,588.94355 c 0,1.1255 0.69316,1.57899 1.71058,1.57899 1.14664,0 1.77401,-0.56157 1.77401,-1.57899 0,-1.04092 -0.64852,-1.64713 -1.75287,-1.64713 -1.10436,0 -1.73172,0.60621 -1.73172,1.64713 m 8.61631,-2.36144 c -0.62737,0.58508 -1.23359,0.82239 -2.03483,0.82239 -0.28197,0 -0.58507,-0.0423 -0.7566,-0.0634 0.43234,0.51928 0.64851,1.08321 0.64851,1.81866 0,1.90559 -1.73172,3.28957 -4.09315,3.28957 -0.12924,0 -0.21618,0 -0.43235,-0.0212 -0.73545,0.34775 -1.14665,0.60622 -1.14665,0.90933 0,0.15273 0.17388,0.26082 0.47699,0.26082 l 1.55784,0.0212 c 1.68943,0.0212 2.57762,0.28196 3.35536,0.99627 0.65087,0.60622 0.95397,1.36281 0.95397,2.35908 0,0.93283 -0.28196,1.64713 -0.88818,2.29565 -0.97512,1.03856 -2.64105,1.42861 -4.37512,1.42861 -1.57899,0 -3.20263,-0.25847 -4.1989,-1.19129 -0.60621,-0.56157 -0.90933,-1.21009 -0.90933,-1.96904 0,-0.60622 0.15038,-0.90933 0.25847,-1.1255 h 2.6857 c -0.10809,0.25847 -0.12924,0.41119 -0.12924,0.7143 0,0.88819 0.73546,1.36282 2.07713,1.36282 0.7378,0 1.36517,-0.0846 1.81866,-0.36655 0.43469,-0.26081 0.71665,-0.67201 0.71665,-1.1255 0,-0.99626 -0.88818,-1.29938 -2.03718,-1.32287 l -1.23358,-0.0212 c -1.29938,-0.0212 -2.14292,-0.12924 -2.6622,-0.34541 -0.52163,-0.19502 -0.84589,-0.69316 -0.84589,-1.44975 0,-0.71666 0.21852,-1.38632 2.03483,-1.86331 -1.60013,-0.41119 -2.38023,-1.42861 -2.38023,-3.0734 0,-2.27449 1.8398,-3.74774 4.67588,-3.74774 0.62737,0 1.19129,0.0869 1.99253,0.28196 0.60622,0.15272 0.99627,0.23966 1.36517,0.23966 0.80125,0 1.62364,-0.34775 2.2933,-0.95397 z m 0,0"
           id="path4623"
           inkscape:connector-curvature="0" />
        <path
           style="fill:#000000;fill-opacity:1;fill-rule:nonzero;stroke:none;stroke-width:0.60152036"
           d="m 416.77853,582.22109 h 1.66123 v 14.23441 h -1.66123 z m 0,0"
           id="path4625"
           inkscape:connector-curvature="0" />
        <path
           style="fill:#000000;fill-opacity:1;fill-rule:nonzero;stroke:none;stroke-width:0.60152036"
           d="m 427.81972,596.4555 v -6.99267 c 0,-1.09965 -0.0846,-1.36987 -0.3736,-1.72232 -0.22792,-0.27022 -0.66496,-0.43704 -1.14195,-0.43704 -0.82944,0 -2.11706,0.66496 -2.86427,1.45445 v 7.69758 h -1.57664 v -7.96779 c 0,-1.47326 -0.39474,-2.18051 -0.39474,-2.18051 l 1.57663,-0.4347 c 0,0 0.37361,0.76836 0.37361,1.61894 1.08085,-1.07851 2.15936,-1.59779 3.25901,-1.59779 1.12081,0 2.11708,0.60152 2.53297,1.5132 0.16448,0.3736 0.24906,0.78949 0.24906,1.20539 v 7.84326 z m 0,0"
           id="path4627"
           inkscape:connector-curvature="0" />
        <path
           style="fill:#000000;fill-opacity:1;fill-rule:nonzero;stroke:none;stroke-width:0.60152036"
           d="m 432.67418,596.4555 v -10.29163 l 1.68238,-0.27022 v 10.56185 z m 0.87173,-12.26537 c -0.7049,0 -1.26413,-0.55923 -1.26413,-1.24299 0,-0.70725 0.55923,-1.28763 1.26413,-1.28763 0.70726,0 1.26649,0.55923 1.26649,1.26648 0,0.70491 -0.55923,1.26414 -1.26649,1.26414"
           id="path4629"
           inkscape:connector-curvature="0" />
        <path
           style="fill:#000000;fill-opacity:1;fill-rule:nonzero;stroke:none;stroke-width:0.60152036"
           d="m 441.64059,587.34576 h -2.15936 v 6.66137 c 0,1.14195 0.31016,1.5367 1.32757,1.5367 0.45819,0 0.72841,-0.0634 1.01742,-0.20913 l 0.22792,1.03856 c -0.51693,0.27022 -1.09965,0.41355 -1.82571,0.41355 -0.54043,0 -0.95397,-0.10339 -1.34872,-0.28901 -0.72605,-0.35245 -0.99627,-1.01742 -0.99627,-2.05363 v -7.09841 h -1.34872 v -1.22419 h 1.34872 c 0,-0.99627 0.16683,-2.6152 0.16683,-2.6152 l 1.70117,-0.37361 c 0,0 -0.20677,1.61894 -0.20677,2.98881 h 2.59406 z m 0,0"
           id="path4631"
           inkscape:connector-curvature="0" />
        <path
           style="fill:#000000;fill-opacity:1;fill-rule:nonzero;stroke:none;stroke-width:0.60152036"
           d="m 444.11012,596.4555 v -10.29163 l 1.68002,-0.27022 v 10.56185 z m 0.87173,-12.26537 c -0.70725,0 -1.26648,-0.55923 -1.26648,-1.24299 0,-0.70725 0.55923,-1.28763 1.26648,-1.28763 0.70491,0 1.26413,0.55923 1.26413,1.26648 0,0.70491 -0.55922,1.26414 -1.26413,1.26414"
           id="path4633"
           inkscape:connector-curvature="0" />
        <path
           style="fill:#000000;fill-opacity:1;fill-rule:nonzero;stroke:none;stroke-width:0.60152036"
           d="m 453.83783,591.16401 c -2.61285,0 -3.54803,0.89287 -3.54803,2.46952 0,1.22418 0.60152,1.88915 1.78576,1.88915 1.05736,0 2.03249,-0.64382 2.50947,-1.61894 l 0.0634,-2.69744 c -0.27021,-0.0212 -0.51928,-0.0423 -0.81064,-0.0423 m 2.36614,5.68625 c -0.70491,-0.22792 -1.22419,-0.7895 -1.40982,-1.51555 -0.99627,0.99627 -1.80691,1.39101 -2.9888,1.39101 -2.55411,0 -3.32011,-1.55549 -3.32011,-2.94651 0,-2.34498 2.01368,-3.71486 5.47712,-3.71486 0.43704,0 0.72841,0.0212 0.72841,0.0212 v -0.72606 c 0,-0.91402 -0.0423,-1.28763 -0.33366,-1.61893 -0.3313,-0.3736 -0.7472,-0.56158 -1.38866,-0.56158 -1.1631,0 -2.63636,0.62267 -3.30132,1.22419 l -0.80829,-1.16074 c 1.36987,-0.91404 2.84312,-1.39102 4.33752,-1.39102 1.43097,0 2.42723,0.55922 2.86427,1.61893 0.22793,0.56158 0.24907,1.34872 0.22793,2.2839 l -0.0846,3.40235 c -0.04,1.68003 0.0634,2.11707 0.83178,2.53296 z m 0,0"
           id="path4635"
           inkscape:connector-curvature="0" />
        <path
           style="fill:#000000;fill-opacity:1;fill-rule:nonzero;stroke:none;stroke-width:0.60152036"
           d="m 463.5303,587.34576 h -2.15702 v 6.66137 c 0,1.14195 0.31016,1.5367 1.32757,1.5367 0.45585,0 0.72606,-0.0634 1.01742,-0.20913 l 0.22792,1.03856 c -0.51928,0.27022 -1.09965,0.41355 -1.82571,0.41355 -0.54043,0 -0.95632,-0.10339 -1.34872,-0.28901 -0.7284,-0.35245 -0.99861,-1.01742 -0.99861,-2.05363 v -7.09841 h -1.34873 v -1.22419 h 1.34873 c 0,-0.99627 0.16682,-2.6152 0.16682,-2.6152 l 1.70117,-0.37361 c 0,0 -0.20677,1.61894 -0.20677,2.98881 h 2.59406 z m 0,0"
           id="path4637"
           inkscape:connector-curvature="0" />
        <path
           style="fill:#000000;fill-opacity:1;fill-rule:nonzero;stroke:none;stroke-width:0.60152036"
           d="m 465.99982,596.4555 v -10.29163 l 1.68003,-0.27022 v 10.56185 z m 0.87174,-12.26537 c -0.70491,0 -1.26649,-0.55923 -1.26649,-1.24299 0,-0.70725 0.56158,-1.28763 1.26649,-1.28763 0.7049,0 1.26648,0.55923 1.26648,1.26648 0,0.70491 -0.56158,1.26414 -1.26648,1.26414"
           id="path4639"
           inkscape:connector-curvature="0" />
        <path
           style="fill:#000000;fill-opacity:1;fill-rule:nonzero;stroke:none;stroke-width:0.60152036"
           d="m 474.8605,596.55889 h -1.59779 l -3.71486,-10.35508 1.66123,-0.35245 2.40608,7.11955 c 0.29136,0.85059 0.49814,1.76227 0.49814,1.76227 h 0.0423 c 0,0 0.16448,-0.80829 0.49814,-1.74347 l 2.36613,-6.86814 h 1.72233 z m 0,0"
           id="path4641"
           inkscape:connector-curvature="0" />
        <path
           style="fill:#000000;fill-opacity:1;fill-rule:nonzero;stroke:none;stroke-width:0.60152036"
           d="m 486.00272,588.02952 c -0.35245,-0.55923 -1.08086,-0.91168 -1.868,-0.91168 -1.47325,0 -2.30505,1.0785 -2.38728,3.21672 h 4.73227 c -0.0211,-1.1208 -0.16683,-1.80691 -0.47699,-2.30504 m -4.25528,3.52923 v 0.24907 c 0,0.97512 0.12453,1.72232 0.47698,2.26275 0.58272,0.89053 1.5367,1.26413 2.57291,1.26413 0.99627,0 1.80691,-0.31015 2.53297,-0.97512 l 0.62266,1.03856 c -0.91403,0.82945 -2.15936,1.28528 -3.48693,1.28528 -2.86427,0 -4.5866,-2.07477 -4.5866,-5.49827 0,-1.74347 0.3736,-2.86427 1.24534,-3.90048 0.82944,-0.97747 1.84685,-1.43331 3.09219,-1.43331 1.1208,0 2.09592,0.39475 2.80082,1.1208 0.89289,0.91403 1.18425,1.88915 1.18425,4.35867 v 0.22792 z m 0,0"
           id="path4643"
           inkscape:connector-curvature="0" />
        <path
           style="fill:#000000;fill-opacity:1;fill-rule:nonzero;stroke:none;stroke-width:0.60152036"
           d="m 285.54136,608.86186 h -1.44271 v 4.9085 h -0.766 v -4.9085 h -1.44271 v -0.64381 h 3.73131 z m 0,0"
           id="path4693"
           inkscape:connector-curvature="0" />
        <path
           style="fill:#000000;fill-opacity:1;fill-rule:nonzero;stroke:none;stroke-width:0.60152036"
           d="m 288.11192,610.38681 c -0.0705,-0.0259 -0.12689,-0.0423 -0.20913,-0.0423 -0.45114,0 -0.83648,0.38065 -0.83648,0.82239 v 2.60346 h -0.74251 v -2.96531 c 0,-0.49109 -0.0564,-0.75895 -0.15272,-1.00802 l 0.71665,-0.18562 c 0.0728,0.15508 0.13629,0.41824 0.13629,0.62032 v 0.0728 c 0.32425,-0.46759 0.66966,-0.70021 1.09729,-0.70021 0.0963,0 0.18563,0.0164 0.24908,0.0399 z m 0,0"
           id="path4695"
           inkscape:connector-curvature="0" />
        <path
           style="fill:#000000;fill-opacity:1;fill-rule:nonzero;stroke:none;stroke-width:0.60152036"
           d="m 290.76472,611.77078 c -0.55688,0 -0.89524,0.10573 -1.05501,0.29135 -0.15508,0.17623 -0.21147,0.32191 -0.21147,0.58743 0,0.44409 0.22557,0.70256 0.63676,0.70256 0.34071,0 0.66261,-0.21148 0.84589,-0.53338 l 0.0259,-1.03152 c -0.11278,-0.007 -0.17858,-0.0164 -0.24201,-0.0164 m 0.91167,2.16876 c -0.25141,-0.0963 -0.44409,-0.29841 -0.54043,-0.58037 -0.10573,0.12923 -0.44409,0.53103 -1.14429,0.53103 -0.80594,0 -1.30643,-0.40885 -1.30643,-1.18424 0,-0.93518 0.74955,-1.43332 2.05598,-1.43332 0.0963,0 0.17622,0 0.28196,0.007 v -0.26551 c 0,-0.47699 -0.0658,-0.7989 -0.62971,-0.7989 -0.42765,0 -0.90933,0.21147 -1.24064,0.46054 l -0.33836,-0.53103 c 0.39475,-0.22557 0.90934,-0.53337 1.69178,-0.53337 0.58977,0 1.01507,0.21852 1.17014,0.64381 0.0635,0.17857 0.0799,0.31486 0.0799,0.70961 0,0.29136 -0.0329,0.91167 -0.0329,1.49909 0,0.55688 0.0164,0.78245 0.3313,0.97513 z m 0,0"
           id="path4697"
           inkscape:connector-curvature="0" />
        <path
           style="fill:#000000;fill-opacity:1;fill-rule:nonzero;stroke:none;stroke-width:0.60152036"
           d="m 295.23853,613.77036 v -2.72329 c 0,-0.3642 -0.0329,-0.49343 -0.12924,-0.62266 -0.0822,-0.10339 -0.22557,-0.15979 -0.41119,-0.15979 -0.29137,0 -0.72606,0.22557 -0.99862,0.51459 v 2.99115 h -0.73311 v -3.00525 c 0,-0.48403 -0.0423,-0.66966 -0.15507,-0.96102 l 0.70255,-0.19268 c 0.0963,0.19268 0.13628,0.37125 0.13628,0.62032 0.23262,-0.19268 0.35481,-0.29841 0.52398,-0.39475 0.23262,-0.13628 0.50049,-0.19972 0.74956,-0.19972 0.42764,0 0.80594,0.22557 0.95162,0.57097 0.0634,0.14568 0.0963,0.32191 0.0963,0.50753 v 3.0546 z m 0,0"
           id="path4699"
           inkscape:connector-curvature="0" />
        <path
           style="fill:#000000;fill-opacity:1;fill-rule:nonzero;stroke:none;stroke-width:0.60152036"
           d="m 298.28372,613.88315 c -0.49108,0 -1.03856,-0.15273 -1.50615,-0.42765 l 0.26552,-0.53103 c 0.3877,0.21852 0.84589,0.4018 1.29703,0.4018 0.44409,0 0.74955,-0.25847 0.74955,-0.65321 0,-0.34541 -0.20913,-0.54748 -0.67671,-0.63442 l -0.49109,-0.0987 c -0.63677,-0.11983 -0.98217,-0.52397 -0.98217,-1.1208 0,-0.74015 0.58742,-1.25708 1.45916,-1.25708 0.49108,0 0.94222,0.13863 1.27118,0.33131 l -0.24907,0.52398 c -0.37125,-0.18563 -0.66966,-0.28902 -0.99157,-0.28902 -0.42764,0 -0.70021,0.23967 -0.70021,0.60388 0,0.28901 0.14569,0.45114 0.57098,0.54747 l 0.52398,0.11983 c 0.7425,0.16918 1.04796,0.59683 1.04796,1.13021 0,0.80594 -0.64381,1.35342 -1.58839,1.35342"
           id="path4701"
           inkscape:connector-curvature="0" />
        <path
           style="fill:#000000;fill-opacity:1;fill-rule:nonzero;stroke:none;stroke-width:0.60152036"
           d="m 302.64475,608.5893 c -0.17623,-0.0893 -0.33836,-0.15509 -0.52399,-0.15509 -0.33835,0 -0.54043,0.23498 -0.54043,0.64617 v 0.65086 h 1.07381 l -0.19502,0.52399 h -0.86939 v 3.51513 h -0.74954 v -3.51513 h -0.38771 v -0.52399 h 0.39475 c -0.0141,-0.0799 -0.0141,-0.57802 -0.0141,-0.64381 0,-0.54747 0.23262,-0.85528 0.45114,-1.00802 0.19268,-0.13628 0.43469,-0.19267 0.73311,-0.19267 0.32895,0 0.62737,0.0634 0.87878,0.21852 z m 0,0"
           id="path4703"
           inkscape:connector-curvature="0" />
        <path
           style="fill:#000000;fill-opacity:1;fill-rule:nonzero;stroke:none;stroke-width:0.60152036"
           d="m 304.55504,610.19179 c -0.64382,0 -0.90933,0.46053 -0.90933,1.4756 0,1.23359 0.31251,1.64478 0.94222,1.64478 0.56393,0 0.90934,-0.43704 0.90934,-1.49205 0,-1.25003 -0.36186,-1.62833 -0.94223,-1.62833 m 0.0164,3.69136 c -1.08086,0 -1.74817,-0.8224 -1.74817,-2.13587 0,-1.30643 0.66731,-2.12647 1.73172,-2.12647 1.19364,0 1.77402,0.94928 1.77402,2.16641 0,1.28058 -0.68612,2.09593 -1.75757,2.09593"
           id="path4705"
           inkscape:connector-curvature="0" />
        <path
           style="fill:#000000;fill-opacity:1;fill-rule:nonzero;stroke:none;stroke-width:0.60152036"
           d="m 309.13459,610.38681 c -0.0729,-0.0259 -0.12924,-0.0423 -0.21147,-0.0423 -0.45114,0 -0.8365,0.38065 -0.8365,0.82239 v 2.60346 h -0.74249 v -2.96531 c 0,-0.49109 -0.0564,-0.75895 -0.15274,-1.00802 l 0.71666,-0.18562 c 0.0728,0.15508 0.13863,0.41824 0.13863,0.62032 v 0.0728 c 0.32191,-0.46759 0.66731,-0.70021 1.09496,-0.70021 0.0963,0 0.18562,0.0164 0.25141,0.0399 z m 0,0"
           id="path4707"
           inkscape:connector-curvature="0" />
        <path
           style="fill:#000000;fill-opacity:1;fill-rule:nonzero;stroke:none;stroke-width:0.60152036"
           d="m 314.2992,613.77036 v -2.89481 c 0,-0.45819 -0.14333,-0.62032 -0.48169,-0.62032 -0.37124,0 -0.63676,0.24437 -0.94457,0.54982 v 2.96531 h -0.7237 v -2.87602 c 0,-0.45114 -0.12924,-0.62031 -0.50048,-0.62031 -0.27492,0 -0.58038,0.13628 -0.92579,0.46524 v 3.03109 h -0.7331 v -2.96531 c 0,-0.57332 -0.0329,-0.72605 -0.14568,-1.00801 l 0.69316,-0.16918 c 0.0799,0.13863 0.13628,0.33836 0.13628,0.56393 0.34541,-0.36186 0.7566,-0.57098 1.13725,-0.57098 0.3783,0 0.7566,0.20207 0.95868,0.63442 0.40179,-0.4253 0.82238,-0.63442 1.23123,-0.63442 0.62972,0 1.03152,0.39475 1.03152,1.1349 v 3.01465 z m 0,0"
           id="path4709"
           inkscape:connector-curvature="0" />
        <path
           style="fill:#000000;fill-opacity:1;fill-rule:nonzero;stroke:none;stroke-width:0.60152036"
           d="m 316.25179,613.77036 v -4.01327 l 0.766,-0.11983 v 4.1331 z m 0.37831,-4.74637 c -0.28902,0 -0.51459,-0.24202 -0.51459,-0.53103 0,-0.29841 0.23262,-0.54278 0.52163,-0.54278 0.29136,0 0.53338,0.23497 0.53338,0.54278 0,0.28901 -0.24202,0.53103 -0.54042,0.53103"
           id="path4711"
           inkscape:connector-curvature="0" />
        <path
           style="fill:#000000;fill-opacity:1;fill-rule:nonzero;stroke:none;stroke-width:0.60152036"
           d="m 320.51413,613.77036 v -2.72329 c 0,-0.3642 -0.0306,-0.49343 -0.12688,-0.62266 -0.0822,-0.10339 -0.22557,-0.15979 -0.4112,-0.15979 -0.29136,0 -0.72606,0.22557 -1.00097,0.51459 v 2.99115 h -0.7331 v -3.00525 c 0,-0.48403 -0.0399,-0.66966 -0.15273,-0.96102 l 0.70021,-0.19268 c 0.0963,0.19268 0.13863,0.37125 0.13863,0.62032 0.23262,-0.19268 0.3548,-0.29841 0.52398,-0.39475 0.23262,-0.13628 0.49814,-0.19972 0.74955,-0.19972 0.42764,0 0.80594,0.22557 0.94927,0.57097 0.0658,0.14568 0.0963,0.32191 0.0963,0.50753 v 3.0546 z m 0,0"
           id="path4713"
           inkscape:connector-curvature="0" />
        <path
           style="fill:#000000;fill-opacity:1;fill-rule:nonzero;stroke:none;stroke-width:0.60152036"
           d="m 323.8037,610.20118 c -0.47465,0 -0.73311,0.25612 -0.73311,0.77305 0,0.49814 0.26551,0.74955 0.74016,0.74955 0.48403,0 0.73544,-0.26551 0.73544,-0.76599 0,-0.51694 -0.23496,-0.75661 -0.74249,-0.75661 m 1.61893,0.10339 c -0.11984,0 -0.15273,-0.009 -0.34541,-0.0658 0.20913,0.26787 0.28901,0.48403 0.28901,0.7425 0,0.58037 -0.39474,1.25003 -1.44975,1.25003 -0.24907,0.0799 -0.63677,0.26552 -0.63677,0.44175 0,0.12218 0.0963,0.20207 0.29137,0.20207 h 0.62031 c 1.03151,0 1.45681,0.48403 1.45681,1.11375 0,0.86939 -0.71665,1.30408 -1.69883,1.30408 -1.12785,0 -1.77401,-0.39475 -1.77401,-1.06441 0,-0.16683 0.0329,-0.28901 0.0728,-0.40884 l 0.72605,-0.0423 c -0.0329,0.0658 -0.0728,0.19502 -0.0728,0.30546 0,0.42059 0.34541,0.64616 0.97512,0.64616 0.66027,0 0.99157,-0.26552 0.99157,-0.69316 0,-0.3877 -0.31486,-0.61327 -1.11375,-0.61327 -0.28196,0 -0.60387,-0.0235 -0.7566,-0.0399 -0.3548,-0.0399 -0.56393,-0.23967 -0.56393,-0.53808 0,-0.38065 0.33131,-0.54278 0.7895,-0.70961 -0.62032,-0.18562 -0.95162,-0.60387 -0.95162,-1.16074 0,-0.81299 0.62031,-1.35578 1.54844,-1.35578 0.21618,0 0.38535,0.0164 0.62737,0.0893 0.20912,0.0658 0.42764,0.12924 0.60622,0.12924 0.23967,0 0.44174,-0.0799 0.66026,-0.23262 l 0.3783,0.45819 c -0.22557,0.17622 -0.41825,0.24202 -0.66966,0.24202"
           id="path4715"
           inkscape:connector-curvature="0" />
        <path
           style="fill:#000000;fill-opacity:1;fill-rule:nonzero;stroke:none;stroke-width:0.60152036"
           d="m 330.74232,613.77036 v -2.77263 c 0,-0.28197 -0.0564,-0.47464 -0.13628,-0.56393 -0.0728,-0.0799 -0.24906,-0.15272 -0.44409,-0.15272 -0.3454,0 -0.7566,0.22557 -1.07146,0.58742 v 2.90186 h -0.74954 v -4.9085 c 0,-0.34541 -0.0329,-0.61327 -0.0893,-0.84589 l 0.74954,-0.15272 c 0.0564,0.24201 0.0893,0.54042 0.0893,0.93517 v 0.90228 c 0,0.14568 -0.007,0.32896 -0.0235,0.54043 0.17623,-0.16213 0.26552,-0.22557 0.42764,-0.33131 0.29842,-0.19267 0.58038,-0.27256 0.87879,-0.27256 0.47463,0 0.89288,0.23967 1.01506,0.60387 0.0634,0.18328 0.0799,0.28901 0.0799,0.65321 v 2.87602 z m 0,0"
           id="path4717"
           inkscape:connector-curvature="0" />
        <path
           style="fill:#000000;fill-opacity:1;fill-rule:nonzero;stroke:none;stroke-width:0.60152036"
           d="m 332.64558,613.77036 v -4.01327 l 0.76599,-0.11983 v 4.1331 z m 0.37829,-4.74637 c -0.28901,0 -0.51458,-0.24202 -0.51458,-0.53103 0,-0.29841 0.23262,-0.54278 0.52398,-0.54278 0.28902,0 0.53103,0.23497 0.53103,0.54278 0,0.28901 -0.24201,0.53103 -0.54043,0.53103"
           id="path4719"
           inkscape:connector-curvature="0" />
        <path
           style="fill:#000000;fill-opacity:1;fill-rule:nonzero;stroke:none;stroke-width:0.60152036"
           d="m 335.98213,610.20118 c -0.47463,0 -0.7331,0.25612 -0.7331,0.77305 0,0.49814 0.26552,0.74955 0.7425,0.74955 0.48169,0 0.73311,-0.26551 0.73311,-0.76599 0,-0.51694 -0.23498,-0.75661 -0.74251,-0.75661 m 1.62128,0.10339 c -0.12218,0 -0.15507,-0.009 -0.34775,-0.0658 0.20912,0.26787 0.28902,0.48403 0.28902,0.7425 0,0.58037 -0.39241,1.25003 -1.44976,1.25003 -0.24907,0.0799 -0.63677,0.26552 -0.63677,0.44175 0,0.12218 0.0963,0.20207 0.29136,0.20207 h 0.62032 c 1.03152,0 1.45916,0.48403 1.45916,1.11375 0,0.86939 -0.71901,1.30408 -1.70118,1.30408 -1.12785,0 -1.77401,-0.39475 -1.77401,-1.06441 0,-0.16683 0.0329,-0.28901 0.0728,-0.40884 l 0.72605,-0.0423 c -0.0329,0.0658 -0.0728,0.19502 -0.0728,0.30546 0,0.42059 0.34776,0.64616 0.97512,0.64616 0.66026,0 0.99157,-0.26552 0.99157,-0.69316 0,-0.3877 -0.31486,-0.61327 -1.1114,-0.61327 -0.28196,0 -0.60622,-0.0235 -0.75895,-0.0399 -0.35481,-0.0399 -0.56393,-0.23967 -0.56393,-0.53808 0,-0.38065 0.33131,-0.54278 0.7895,-0.70961 -0.62032,-0.18562 -0.94928,-0.60387 -0.94928,-1.16074 0,-0.81299 0.62032,-1.35578 1.5461,-1.35578 0.21852,0 0.3877,0.0164 0.62972,0.0893 0.20912,0.0658 0.42529,0.12924 0.60387,0.12924 0.24201,0 0.44174,-0.0799 0.66026,-0.23262 l 0.3783,0.45819 c -0.22557,0.17622 -0.41824,0.24202 -0.66732,0.24202"
           id="path4721"
           inkscape:connector-curvature="0" />
        <path
           style="fill:#000000;fill-opacity:1;fill-rule:nonzero;stroke:none;stroke-width:0.60152036"
           d="m 341.18904,613.77036 v -2.77263 c 0,-0.28197 -0.0564,-0.47464 -0.13628,-0.56393 -0.0728,-0.0799 -0.25142,-0.15272 -0.44409,-0.15272 -0.34776,0 -0.7566,0.22557 -1.07146,0.58742 v 2.90186 h -0.74955 v -4.9085 c 0,-0.34541 -0.0329,-0.61327 -0.0893,-0.84589 l 0.74955,-0.15272 c 0.0564,0.24201 0.0893,0.54042 0.0893,0.93517 v 0.90228 c 0,0.14568 -0.009,0.32896 -0.0235,0.54043 0.17623,-0.16213 0.26552,-0.22557 0.4253,-0.33131 0.29841,-0.19267 0.58037,-0.27256 0.87878,-0.27256 0.47699,0 0.89523,0.23967 1.01507,0.60387 0.0658,0.18328 0.0822,0.28901 0.0822,0.65321 v 2.87602 z m 0,0"
           id="path4723"
           inkscape:connector-curvature="0" />
        <path
           style="fill:#000000;fill-opacity:1;fill-rule:nonzero;stroke:none;stroke-width:0.60152036"
           d="m 345.08248,610.45025 c -0.12924,-0.16213 -0.32191,-0.28196 -0.58038,-0.28196 -0.56392,0 -0.84589,0.45819 -0.84589,1.19364 h 1.67533 c 0,-0.3877 -0.0869,-0.70961 -0.24906,-0.91168 m -1.43566,1.45916 v 0.0963 c 0,0.34541 0.0493,0.61328 0.16918,0.80595 0.21147,0.3219 0.54043,0.47463 0.92812,0.47463 0.3783,0 0.70021,-0.12923 0.99157,-0.38769 l 0.28196,0.44409 c -0.39475,0.34775 -0.87173,0.51458 -1.39571,0.51458 -1.11845,0 -1.80456,-0.81299 -1.80456,-2.13352 0,-0.70255 0.13863,-1.15369 0.48403,-1.56254 0.32191,-0.38065 0.71666,-0.55688 1.21714,-0.55688 0.45114,0 0.81299,0.14568 1.09496,0.43469 0.3548,0.36186 0.48403,0.81535 0.49108,1.74112 v 0.12924 z m 0,0"
           id="path4725"
           inkscape:connector-curvature="0" />
        <path
           style="fill:#000000;fill-opacity:1;fill-rule:nonzero;stroke:none;stroke-width:0.60152036"
           d="m 348.91012,610.38681 c -0.0728,-0.0259 -0.12688,-0.0423 -0.20912,-0.0423 -0.45114,0 -0.83884,0.38065 -0.83884,0.82239 v 2.60346 h -0.74015 v -2.96531 c 0,-0.49109 -0.0564,-0.75895 -0.15273,-1.00802 l 0.71665,-0.18562 c 0.0729,0.15508 0.13628,0.41824 0.13628,0.62032 v 0.0728 c 0.32191,-0.46759 0.66967,-0.70021 1.09731,-0.70021 0.0963,0 0.18563,0.0164 0.24907,0.0399 z m 0,0"
           id="path4727"
           inkscape:connector-curvature="0" />
        <path
           style="fill:#000000;fill-opacity:1;fill-rule:nonzero;stroke:none;stroke-width:0.60152036"
           d="m 353.48026,610.45025 c -0.12923,-0.16213 -0.3219,-0.28196 -0.58037,-0.28196 -0.56392,0 -0.84589,0.45819 -0.84589,1.19364 h 1.67533 c 0,-0.3877 -0.0869,-0.70961 -0.24907,-0.91168 m -1.43331,1.45916 v 0.0963 c 0,0.34541 0.047,0.61328 0.16918,0.80595 0.20913,0.3219 0.54043,0.47463 0.92578,0.47463 0.3783,0 0.70255,-0.12923 0.99157,-0.38769 l 0.28196,0.44409 c -0.39475,0.34775 -0.86938,0.51458 -1.39336,0.51458 -1.12081,0 -1.80691,-0.81299 -1.80691,-2.13352 0,-0.70255 0.13863,-1.15369 0.48403,-1.56254 0.32191,-0.38065 0.71665,-0.55688 1.21714,-0.55688 0.45114,0 0.81299,0.14568 1.0973,0.43469 0.35481,0.36186 0.48169,0.81535 0.49109,1.74112 v 0.12924 z m 0,0"
           id="path4729"
           inkscape:connector-curvature="0" />
        <path
           style="fill:#000000;fill-opacity:1;fill-rule:nonzero;stroke:none;stroke-width:0.60152036"
           d="m 357.82484,610.63588 c -0.20913,-0.24907 -0.47464,-0.38065 -0.85294,-0.38065 -0.30781,0 -0.54982,0.15508 -0.70256,0.41354 -0.15272,0.26317 -0.20911,0.58742 -0.20911,1.1114 0,0.7801 0.0963,0.99862 0.31485,1.22419 0.13629,0.14568 0.32191,0.20913 0.59682,0.20913 0.42765,0 0.71666,-0.22557 0.85294,-0.4676 z m 0.15273,3.13448 c -0.0399,-0.11983 -0.047,-0.17623 -0.0705,-0.38065 -0.28196,0.29841 -0.61327,0.44409 -1.04091,0.44409 -1.03151,0 -1.63539,-0.77305 -1.63539,-2.04658 0,-0.86938 0.29841,-1.53904 0.84589,-1.89384 0.24907,-0.16214 0.50048,-0.23262 0.7895,-0.23262 0.38769,0 0.7096,0.13628 0.98452,0.46523 0,-0.11043 -0.0164,-0.43234 -0.0164,-0.70725 v -1.57195 l 0.74014,0.11984 v 4.45031 c 0,0.65322 0.0235,1.10436 0.11279,1.35342 z m 0,0"
           id="path4731"
           inkscape:connector-curvature="0" />
        <path
           style="fill:#000000;fill-opacity:1;fill-rule:nonzero;stroke:none;stroke-width:0.60152036"
           d="m 362.58061,613.90664 c -0.20207,-0.15273 -0.30546,-0.30546 -0.3783,-0.58037 -0.32191,0.39475 -0.71665,0.58037 -1.21714,0.58037 -0.51458,0 -0.91873,-0.23262 -1.08791,-0.60387 -0.0728,-0.15978 -0.0963,-0.38535 -0.0963,-0.67671 v -2.86897 l 0.7331,-0.14568 v 2.81258 c 0,0.41119 0.0399,0.57098 0.18563,0.7096 0.10339,0.0963 0.28901,0.17858 0.46758,0.17858 0.36186,0 0.74956,-0.28196 0.91873,-0.63911 v -2.89952 l 0.73311,-0.14568 v 3.03815 c 0,0.41119 0.0893,0.70255 0.24906,0.83884 z m 0,0"
           id="path4733"
           inkscape:connector-curvature="0" />
        <path
           style="fill:#000000;fill-opacity:1;fill-rule:nonzero;stroke:none;stroke-width:0.60152036"
           d="m 365.55531,613.85025 c -0.58037,0 -1.01506,-0.20207 -1.29702,-0.60387 -0.26551,-0.3783 -0.3877,-0.84589 -0.3877,-1.45916 0,-0.90933 0.29136,-1.43331 0.67671,-1.78106 0.29841,-0.26551 0.65321,-0.4112 1.04796,-0.4112 0.4347,0 0.7895,0.14569 1.09731,0.42765 l -0.3877,0.50753 c -0.26552,-0.23262 -0.45114,-0.31486 -0.70961,-0.31486 -0.30546,0 -0.57097,0.16213 -0.70961,0.43704 -0.13628,0.27257 -0.19267,0.67671 -0.19267,1.23124 0,0.56628 0.11279,0.93518 0.32191,1.16075 0.14568,0.15273 0.34775,0.24201 0.58037,0.24201 0.29841,0 0.59682,-0.14568 0.83884,-0.41824 l 0.36185,0.45819 c -0.38535,0.38065 -0.72605,0.52398 -1.24064,0.52398"
           id="path4735"
           inkscape:connector-curvature="0" />
        <path
           style="fill:#000000;fill-opacity:1;fill-rule:nonzero;stroke:none;stroke-width:0.60152036"
           d="m 369.39941,611.77078 c -0.55453,0 -0.89289,0.10573 -1.05501,0.29135 -0.15273,0.17623 -0.20912,0.32191 -0.20912,0.58743 0,0.44409 0.22557,0.70256 0.63676,0.70256 0.33836,0 0.66027,-0.21148 0.84589,-0.53338 l 0.0235,-1.03152 c -0.11279,-0.007 -0.17623,-0.0164 -0.24202,-0.0164 m 0.91168,2.16876 c -0.25142,-0.0963 -0.44409,-0.29841 -0.54042,-0.58037 -0.10339,0.12923 -0.4441,0.53103 -1.14431,0.53103 -0.80594,0 -1.30642,-0.40885 -1.30642,-1.18424 0,-0.93518 0.74955,-1.43332 2.05598,-1.43332 0.0963,0 0.17622,0 0.28196,0.007 v -0.26551 c 0,-0.47699 -0.0634,-0.7989 -0.62972,-0.7989 -0.42529,0 -0.90933,0.21147 -1.24064,0.46054 l -0.33835,-0.53103 c 0.39475,-0.22557 0.91168,-0.53337 1.69413,-0.53337 0.58742,0 1.01506,0.21852 1.16779,0.64381 0.0634,0.17857 0.0799,0.31486 0.0799,0.70961 0,0.29136 -0.0329,0.91167 -0.0329,1.49909 0,0.55688 0.0164,0.78245 0.33131,0.97513 z m 0,0"
           id="path4737"
           inkscape:connector-curvature="0" />
        <path
           style="fill:#000000;fill-opacity:1;fill-rule:nonzero;stroke:none;stroke-width:0.60152036"
           d="m 373.14011,610.25523 h -0.79889 v 2.43427 c 0,0.50049 0.12218,0.65322 0.52398,0.65322 0.13628,0 0.25142,-0.0235 0.3783,-0.0799 l 0.0893,0.45114 c -0.22557,0.11278 -0.46759,0.16918 -0.73311,0.16918 -0.26551,0 -0.55687,-0.0799 -0.68376,-0.20208 -0.17152,-0.15273 -0.2984,-0.23262 -0.2984,-0.82239 v -2.60345 h -0.48404 v -0.52163 h 0.48404 c 0,-0.31486 0.007,-0.72606 0.047,-1.03387 l 0.766,-0.17623 c -0.0329,0.29137 -0.0728,0.7989 -0.0728,1.2101 h 0.98452 z m 0,0"
           id="path4739"
           inkscape:connector-curvature="0" />
        <path
           style="fill:#000000;fill-opacity:1;fill-rule:nonzero;stroke:none;stroke-width:0.60152036"
           d="m 374.12463,613.77036 v -4.01327 l 0.76365,-0.11983 v 4.1331 z m 0.3783,-4.74637 c -0.29136,0 -0.51693,-0.24202 -0.51693,-0.53103 0,-0.29841 0.23497,-0.54278 0.52398,-0.54278 0.29136,0 0.53338,0.23497 0.53338,0.54278 0,0.28901 -0.24202,0.53103 -0.54043,0.53103"
           id="path4741"
           inkscape:connector-curvature="0" />
        <path
           style="fill:#000000;fill-opacity:1;fill-rule:nonzero;stroke:none;stroke-width:0.60152036"
           d="m 377.55753,610.19179 c -0.64617,0 -0.91168,0.46053 -0.91168,1.4756 0,1.23359 0.31486,1.64478 0.94222,1.64478 0.56393,0 0.91168,-0.43704 0.91168,-1.49205 0,-1.25003 -0.36185,-1.62833 -0.94222,-1.62833 m 0.0164,3.69136 c -1.08085,0 -1.75051,-0.8224 -1.75051,-2.13587 0,-1.30643 0.66966,-2.12647 1.73406,-2.12647 1.1913,0 1.77167,0.94928 1.77167,2.16641 0,1.28058 -0.68376,2.09593 -1.75522,2.09593"
           id="path4743"
           inkscape:connector-curvature="0" />
        <path
           style="fill:#000000;fill-opacity:1;fill-rule:nonzero;stroke:none;stroke-width:0.60152036"
           d="m 382.61876,613.77036 v -2.72329 c 0,-0.3642 -0.0329,-0.49343 -0.12923,-0.62266 -0.0799,-0.10339 -0.22557,-0.15979 -0.4112,-0.15979 -0.28902,0 -0.72606,0.22557 -0.99862,0.51459 v 2.99115 h -0.7331 v -3.00525 c 0,-0.48403 -0.0399,-0.66966 -0.15273,-0.96102 l 0.7002,-0.19268 c 0.0963,0.19268 0.13629,0.37125 0.13629,0.62032 0.23497,-0.19268 0.3548,-0.29841 0.52398,-0.39475 0.23496,-0.13628 0.50048,-0.19972 0.74955,-0.19972 0.42764,0 0.80594,0.22557 0.95162,0.57097 0.0634,0.14568 0.0963,0.32191 0.0963,0.50753 v 3.0546 z m 0,0"
           id="path4745"
           inkscape:connector-curvature="0" />
        <path
           style="fill:#000000;fill-opacity:1;fill-rule:nonzero;stroke:none;stroke-width:0.60152036"
           d="m 387.83272,610.25523 h -0.79655 v 2.43427 c 0,0.50049 0.11984,0.65322 0.52398,0.65322 0.13629,0 0.24907,-0.0235 0.3783,-0.0799 l 0.0893,0.45114 c -0.22557,0.11278 -0.46759,0.16918 -0.7331,0.16918 -0.26786,0 -0.55688,-0.0799 -0.68611,-0.20208 -0.16918,-0.15273 -0.29841,-0.23262 -0.29841,-0.82239 v -2.60345 h -0.48404 v -0.52163 h 0.48404 c 0,-0.31486 0.009,-0.72606 0.0493,-1.03387 l 0.766,-0.17623 c -0.0329,0.29137 -0.0728,0.7989 -0.0728,1.2101 h 0.98217 z m 0,0"
           id="path4747"
           inkscape:connector-curvature="0" />
        <path
           style="fill:#000000;fill-opacity:1;fill-rule:nonzero;stroke:none;stroke-width:0.60152036"
           d="m 391.21862,613.77036 v -2.77263 c 0,-0.28197 -0.0564,-0.47464 -0.13628,-0.56393 -0.0728,-0.0799 -0.24907,-0.15272 -0.4441,-0.15272 -0.3454,0 -0.75659,0.22557 -1.07145,0.58742 v 2.90186 h -0.74955 v -4.9085 c 0,-0.34541 -0.0329,-0.61327 -0.0893,-0.84589 l 0.74955,-0.15272 c 0.0564,0.24201 0.0893,0.54042 0.0893,0.93517 v 0.90228 c 0,0.14568 -0.007,0.32896 -0.0235,0.54043 0.17622,-0.16213 0.26551,-0.22557 0.42529,-0.33131 0.29841,-0.19267 0.58037,-0.27256 0.87879,-0.27256 0.47698,0 0.89523,0.23967 1.01741,0.60387 0.0634,0.18328 0.0799,0.28901 0.0799,0.65321 v 2.87602 z m 0,0"
           id="path4749"
           inkscape:connector-curvature="0" />
        <path
           style="fill:#000000;fill-opacity:1;fill-rule:nonzero;stroke:none;stroke-width:0.60152036"
           d="m 394.92643,610.38681 c -0.0728,-0.0259 -0.12924,-0.0423 -0.20913,-0.0423 -0.45114,0 -0.83883,0.38065 -0.83883,0.82239 v 2.60346 h -0.74016 v -2.96531 c 0,-0.49109 -0.0564,-0.75895 -0.15272,-1.00802 l 0.71665,-0.18562 c 0.0728,0.15508 0.13628,0.41824 0.13628,0.62032 v 0.0728 c 0.32191,-0.46759 0.66967,-0.70021 1.09496,-0.70021 0.0987,0 0.18562,0.0164 0.25142,0.0399 z m 0,0"
           id="path4751"
           inkscape:connector-curvature="0" />
        <path
           style="fill:#000000;fill-opacity:1;fill-rule:nonzero;stroke:none;stroke-width:0.60152036"
           d="m 397.23147,610.19179 c -0.64381,0 -0.90933,0.46053 -0.90933,1.4756 0,1.23359 0.31251,1.64478 0.94223,1.64478 0.56393,0 0.90933,-0.43704 0.90933,-1.49205 0,-1.25003 -0.36186,-1.62833 -0.94223,-1.62833 m 0.0164,3.69136 c -1.08086,0 -1.74817,-0.8224 -1.74817,-2.13587 0,-1.30643 0.66731,-2.12647 1.73172,-2.12647 1.19364,0 1.77402,0.94928 1.77402,2.16641 0,1.28058 -0.68612,2.09593 -1.75757,2.09593"
           id="path4753"
           inkscape:connector-curvature="0" />
        <path
           style="fill:#000000;fill-opacity:1;fill-rule:nonzero;stroke:none;stroke-width:0.60152036"
           d="m 402.75324,613.90664 c -0.20207,-0.15273 -0.30546,-0.30546 -0.3783,-0.58037 -0.32425,0.39475 -0.719,0.58037 -1.21714,0.58037 -0.51693,0 -0.91872,-0.23262 -1.0879,-0.60387 -0.0728,-0.15978 -0.0963,-0.38535 -0.0963,-0.67671 v -2.86897 l 0.7331,-0.14568 v 2.81258 c 0,0.41119 0.0399,0.57098 0.18563,0.7096 0.10338,0.0963 0.28901,0.17858 0.46523,0.17858 0.36421,0 0.74956,-0.28196 0.91874,-0.63911 v -2.89952 l 0.73545,-0.14568 v 3.03815 c 0,0.41119 0.0869,0.70255 0.24907,0.83884 z m 0,0"
           id="path4755"
           inkscape:connector-curvature="0" />
        <path
           style="fill:#000000;fill-opacity:1;fill-rule:nonzero;stroke:none;stroke-width:0.60152036"
           d="m 405.66215,610.20118 c -0.47463,0 -0.7331,0.25612 -0.7331,0.77305 0,0.49814 0.26552,0.74955 0.74251,0.74955 0.48403,0 0.7331,-0.26551 0.7331,-0.76599 0,-0.51694 -0.23497,-0.75661 -0.74251,-0.75661 m 1.62129,0.10339 c -0.12218,0 -0.15273,-0.009 -0.34775,-0.0658 0.20912,0.26787 0.29136,0.48403 0.29136,0.7425 0,0.58037 -0.39475,1.25003 -1.44976,1.25003 -0.25142,0.0799 -0.63911,0.26552 -0.63911,0.44175 0,0.12218 0.0987,0.20207 0.29136,0.20207 h 0.62032 c 1.03151,0 1.45915,0.48403 1.45915,1.11375 0,0.86939 -0.71665,1.30408 -1.70117,1.30408 -1.12785,0 -1.77167,-0.39475 -1.77167,-1.06441 0,-0.16683 0.0306,-0.28901 0.0728,-0.40884 l 0.72371,-0.0423 c -0.0306,0.0658 -0.0729,0.19502 -0.0729,0.30546 0,0.42059 0.34776,0.64616 0.97513,0.64616 0.66026,0 0.99157,-0.26552 0.99157,-0.69316 0,-0.3877 -0.31486,-0.61327 -1.11141,-0.61327 -0.28196,0 -0.60387,-0.0235 -0.75659,-0.0399 -0.35481,-0.0399 -0.56628,-0.23967 -0.56628,-0.53808 0,-0.38065 0.3313,-0.54278 0.79185,-0.70961 -0.62267,-0.18562 -0.95163,-0.60387 -0.95163,-1.16074 0,-0.81299 0.62032,-1.35578 1.5461,-1.35578 0.21852,0 0.38769,0.0164 0.62971,0.0893 0.20912,0.0658 0.42764,0.12924 0.60387,0.12924 0.24202,0 0.44409,-0.0799 0.66027,-0.23262 l 0.37829,0.45819 c -0.22557,0.17622 -0.41824,0.24202 -0.66731,0.24202"
           id="path4757"
           inkscape:connector-curvature="0" />
        <path
           style="fill:#000000;fill-opacity:1;fill-rule:nonzero;stroke:none;stroke-width:0.60152036"
           d="m 410.86907,613.77036 v -2.77263 c 0,-0.28197 -0.0564,-0.47464 -0.13629,-0.56393 -0.0728,-0.0799 -0.24906,-0.15272 -0.44409,-0.15272 -0.3454,0 -0.75659,0.22557 -1.07145,0.58742 v 2.90186 h -0.74955 v -4.9085 c 0,-0.34541 -0.0329,-0.61327 -0.0893,-0.84589 l 0.74955,-0.15272 c 0.0564,0.24201 0.0893,0.54042 0.0893,0.93517 v 0.90228 c 0,0.14568 -0.007,0.32896 -0.0235,0.54043 0.17622,-0.16213 0.26551,-0.22557 0.42764,-0.33131 0.29841,-0.19267 0.58037,-0.27256 0.87878,-0.27256 0.47464,0 0.89289,0.23967 1.01507,0.60387 0.0634,0.18328 0.0799,0.28901 0.0799,0.65321 v 2.87602 z m 0,0"
           id="path4759"
           inkscape:connector-curvature="0" />
        <path
           style="fill:#000000;fill-opacity:1;fill-rule:nonzero;stroke:none;stroke-width:0.60152036"
           d="m 416.05953,610.25523 h -0.79655 v 2.43427 c 0,0.50049 0.11984,0.65322 0.52399,0.65322 0.13628,0 0.24906,-0.0235 0.3783,-0.0799 l 0.0893,0.45114 c -0.22557,0.11278 -0.46759,0.16918 -0.73311,0.16918 -0.26786,0 -0.55687,-0.0799 -0.68611,-0.20208 -0.16918,-0.15273 -0.29841,-0.23262 -0.29841,-0.82239 v -2.60345 h -0.48404 v -0.52163 h 0.48404 c 0,-0.31486 0.009,-0.72606 0.0493,-1.03387 l 0.766,-0.17623 c -0.0329,0.29137 -0.0728,0.7989 -0.0728,1.2101 h 0.98217 z m 0,0"
           id="path4761"
           inkscape:connector-curvature="0" />
        <path
           style="fill:#000000;fill-opacity:1;fill-rule:nonzero;stroke:none;stroke-width:0.60152036"
           d="m 419.44543,613.77036 v -2.77263 c 0,-0.28197 -0.0564,-0.47464 -0.13628,-0.56393 -0.0728,-0.0799 -0.24907,-0.15272 -0.44409,-0.15272 -0.34541,0 -0.7566,0.22557 -1.07146,0.58742 v 2.90186 h -0.74955 v -4.9085 c 0,-0.34541 -0.0329,-0.61327 -0.0893,-0.84589 l 0.74956,-0.15272 c 0.0564,0.24201 0.0893,0.54042 0.0893,0.93517 v 0.90228 c 0,0.14568 -0.007,0.32896 -0.0235,0.54043 0.17623,-0.16213 0.26552,-0.22557 0.42529,-0.33131 0.29842,-0.19267 0.58038,-0.27256 0.87879,-0.27256 0.47699,0 0.89523,0.23967 1.01742,0.60387 0.0634,0.18328 0.0799,0.28901 0.0799,0.65321 v 2.87602 z m 0,0"
           id="path4763"
           inkscape:connector-curvature="0" />
        <path
           style="fill:#000000;fill-opacity:1;fill-rule:nonzero;stroke:none;stroke-width:0.60152036"
           d="m 423.33887,610.45025 c -0.12924,-0.16213 -0.32191,-0.28196 -0.58038,-0.28196 -0.56392,0 -0.84588,0.45819 -0.84588,1.19364 h 1.67533 c 0,-0.3877 -0.087,-0.70961 -0.24907,-0.91168 m -1.43331,1.45916 v 0.0963 c 0,0.34541 0.047,0.61328 0.16682,0.80595 0.21148,0.3219 0.54043,0.47463 0.92813,0.47463 0.3783,0 0.70021,-0.12923 0.99157,-0.38769 l 0.28196,0.44409 c -0.39474,0.34775 -0.86938,0.51458 -1.39336,0.51458 -1.12081,0 -1.80691,-0.81299 -1.80691,-2.13352 0,-0.70255 0.13863,-1.15369 0.48404,-1.56254 0.3219,-0.38065 0.71665,-0.55688 1.21713,-0.55688 0.45114,0 0.813,0.14568 1.09496,0.43469 0.3548,0.36186 0.48403,0.81535 0.49343,1.74112 v 0.12924 z m 0,0"
           id="path4765"
           inkscape:connector-curvature="0" />
        <path
           style="fill:#000000;fill-opacity:1;fill-rule:nonzero;stroke:none;stroke-width:0.60152036"
           d="m 428.21447,613.88315 c -0.49108,0 -1.03856,-0.15273 -1.50615,-0.42765 l 0.26551,-0.53103 c 0.3877,0.21852 0.84589,0.4018 1.29703,0.4018 0.44409,0 0.74956,-0.25847 0.74956,-0.65321 0,-0.34541 -0.20913,-0.54748 -0.67671,-0.63442 l -0.49109,-0.0987 c -0.63676,-0.11983 -0.98217,-0.52397 -0.98217,-1.1208 0,-0.74015 0.58742,-1.25708 1.45916,-1.25708 0.49108,0 0.94222,0.13863 1.27118,0.33131 l -0.24907,0.52398 c -0.37125,-0.18563 -0.66966,-0.28902 -0.99157,-0.28902 -0.42764,0 -0.7002,0.23967 -0.7002,0.60388 0,0.28901 0.14567,0.45114 0.57097,0.54747 l 0.52398,0.11983 c 0.7425,0.16918 1.04796,0.59683 1.04796,1.13021 0,0.80594 -0.64382,1.35342 -1.58839,1.35342"
           id="path4767"
           inkscape:connector-curvature="0" />
        <path
           style="fill:#000000;fill-opacity:1;fill-rule:nonzero;stroke:none;stroke-width:0.60152036"
           d="m 432.13375,613.85025 c -0.58037,0 -1.01741,-0.20207 -1.29938,-0.60387 -0.26551,-0.3783 -0.38534,-0.84589 -0.38534,-1.45916 0,-0.90933 0.289,-1.43331 0.67671,-1.78106 0.29841,-0.26551 0.65321,-0.4112 1.04796,-0.4112 0.43469,0 0.78949,0.14569 1.09496,0.42765 l -0.38771,0.50753 c -0.26551,-0.23262 -0.45114,-0.31486 -0.70725,-0.31486 -0.30781,0 -0.57333,0.16213 -0.70961,0.43704 -0.13863,0.27257 -0.19502,0.67671 -0.19502,1.23124 0,0.56628 0.11513,0.93518 0.32425,1.16075 0.14569,0.15273 0.34541,0.24201 0.58038,0.24201 0.29841,0 0.59682,-0.14568 0.83649,-0.41824 l 0.3642,0.45819 c -0.3877,0.38065 -0.72605,0.52398 -1.24064,0.52398"
           id="path4769"
           inkscape:connector-curvature="0" />
        <path
           style="fill:#000000;fill-opacity:1;fill-rule:nonzero;stroke:none;stroke-width:0.60152036"
           d="m 434.17328,613.77036 v -4.01327 l 0.76365,-0.11983 v 4.1331 z m 0.3783,-4.74637 c -0.29136,0 -0.51693,-0.24202 -0.51693,-0.53103 0,-0.29841 0.23497,-0.54278 0.52398,-0.54278 0.29136,0 0.53338,0.23497 0.53338,0.54278 0,0.28901 -0.24202,0.53103 -0.54043,0.53103"
           id="path4771"
           inkscape:connector-curvature="0" />
        <path
           style="fill:#000000;fill-opacity:1;fill-rule:nonzero;stroke:none;stroke-width:0.60152036"
           d="m 438.13721,610.45025 c -0.12924,-0.16213 -0.32191,-0.28196 -0.58038,-0.28196 -0.56392,0 -0.84588,0.45819 -0.84588,1.19364 h 1.67533 c 0,-0.3877 -0.0869,-0.70961 -0.24907,-0.91168 m -1.43331,1.45916 v 0.0963 c 0,0.34541 0.047,0.61328 0.16917,0.80595 0.20913,0.3219 0.54043,0.47463 0.92579,0.47463 0.37829,0 0.70255,-0.12923 0.99156,-0.38769 l 0.28196,0.44409 c -0.39475,0.34775 -0.86938,0.51458 -1.39336,0.51458 -1.1208,0 -1.80691,-0.81299 -1.80691,-2.13352 0,-0.70255 0.13863,-1.15369 0.48403,-1.56254 0.32191,-0.38065 0.71666,-0.55688 1.21715,-0.55688 0.45114,0 0.81299,0.14568 1.09729,0.43469 0.35481,0.36186 0.4817,0.81535 0.49109,1.74112 v 0.12924 z m 0,0"
           id="path4773"
           inkscape:connector-curvature="0" />
        <path
           style="fill:#000000;fill-opacity:1;fill-rule:nonzero;stroke:none;stroke-width:0.60152036"
           d="m 442.44888,613.77036 v -2.72329 c 0,-0.3642 -0.0305,-0.49343 -0.12687,-0.62266 -0.0822,-0.10339 -0.22557,-0.15979 -0.4112,-0.15979 -0.29136,0 -0.72606,0.22557 -1.00097,0.51459 v 2.99115 h -0.7331 v -3.00525 c 0,-0.48403 -0.0399,-0.66966 -0.15273,-0.96102 l 0.70021,-0.19268 c 0.0963,0.19268 0.13863,0.37125 0.13863,0.62032 0.23261,-0.19268 0.3548,-0.29841 0.52398,-0.39475 0.23262,-0.13628 0.49813,-0.19972 0.74955,-0.19972 0.42529,0 0.80594,0.22557 0.94927,0.57097 0.0658,0.14568 0.0963,0.32191 0.0963,0.50753 v 3.0546 z m 0,0"
           id="path4775"
           inkscape:connector-curvature="0" />
        <path
           style="fill:#000000;fill-opacity:1;fill-rule:nonzero;stroke:none;stroke-width:0.60152036"
           d="m 445.80189,613.85025 c -0.57802,0 -1.01506,-0.20207 -1.29703,-0.60387 -0.26551,-0.3783 -0.38534,-0.84589 -0.38534,-1.45916 0,-0.90933 0.28901,-1.43331 0.67671,-1.78106 0.29841,-0.26551 0.65321,-0.4112 1.04796,-0.4112 0.43469,0 0.7895,0.14569 1.09495,0.42765 l -0.38769,0.50753 c -0.26552,-0.23262 -0.45114,-0.31486 -0.70726,-0.31486 -0.30781,0 -0.57333,0.16213 -0.70961,0.43704 -0.13863,0.27257 -0.19502,0.67671 -0.19502,1.23124 0,0.56628 0.11513,0.93518 0.32425,1.16075 0.14569,0.15273 0.34541,0.24201 0.58038,0.24201 0.29841,0 0.59682,-0.14568 0.83649,-0.41824 l 0.3642,0.45819 c -0.3877,0.38065 -0.72605,0.52398 -1.24299,0.52398"
           id="path4777"
           inkscape:connector-curvature="0" />
        <path
           style="fill:#000000;fill-opacity:1;fill-rule:nonzero;stroke:none;stroke-width:0.60152036"
           d="m 449.83396,610.45025 c -0.12924,-0.16213 -0.32425,-0.28196 -0.58038,-0.28196 -0.56392,0 -0.84823,0.45819 -0.84823,1.19364 h 1.67768 c 0,-0.3877 -0.0893,-0.70961 -0.24907,-0.91168 m -1.43566,1.45916 v 0.0963 c 0,0.34541 0.0493,0.61328 0.16918,0.80595 0.20912,0.3219 0.54043,0.47463 0.92813,0.47463 0.37829,0 0.7002,-0.12923 0.98921,-0.38769 l 0.28197,0.44409 c -0.39475,0.34775 -0.86939,0.51458 -1.39337,0.51458 -1.1208,0 -1.80456,-0.81299 -1.80456,-2.13352 0,-0.70255 0.13628,-1.15369 0.48403,-1.56254 0.32191,-0.38065 0.71666,-0.55688 1.21715,-0.55688 0.45114,0 0.81299,0.14568 1.09495,0.43469 0.3548,0.36186 0.48404,0.81535 0.49109,1.74112 v 0.12924 z m 0,0"
           id="path4779"
           inkscape:connector-curvature="0" />
        <path
           style="fill:#000000;fill-opacity:1;fill-rule:nonzero;stroke:none;stroke-width:0.60152036"
           d="m 455.04792,610.19179 c -0.64382,0 -0.91168,0.46053 -0.91168,1.4756 0,1.23359 0.31486,1.64478 0.94457,1.64478 0.56393,0 0.90933,-0.43704 0.90933,-1.49205 0,-1.25003 -0.36185,-1.62833 -0.94222,-1.62833 m 0.0164,3.69136 c -1.08085,0 -1.74817,-0.8224 -1.74817,-2.13587 0,-1.30643 0.66732,-2.12647 1.73173,-2.12647 1.19364,0 1.77166,0.94928 1.77166,2.16641 0,1.28058 -0.68376,2.09593 -1.75522,2.09593"
           id="path4781"
           inkscape:connector-curvature="0" />
        <path
           style="fill:#000000;fill-opacity:1;fill-rule:nonzero;stroke:none;stroke-width:0.60152036"
           d="m 459.69091,608.5893 c -0.17858,-0.0893 -0.33836,-0.15509 -0.52399,-0.15509 -0.33835,0 -0.54042,0.23498 -0.54042,0.64617 v 0.65086 h 1.07146 l -0.19268,0.52399 h -0.86939 v 3.51513 h -0.74954 v -3.51513 h -0.3877 v -0.52399 h 0.39475 c -0.0165,-0.0799 -0.0165,-0.57802 -0.0165,-0.64381 0,-0.54747 0.23498,-0.85528 0.45114,-1.00802 0.19503,-0.13628 0.4347,-0.19267 0.73311,-0.19267 0.3313,0 0.62972,0.0634 0.87878,0.21852 z m 0,0"
           id="path4783"
           inkscape:connector-curvature="0" />
        <path
           style="fill:#000000;fill-opacity:1;fill-rule:nonzero;stroke:none;stroke-width:0.60152036"
           d="m 462.65621,613.85025 c -0.28901,0 -0.47464,-0.0869 -0.62736,-0.30546 -0.12219,-0.16918 -0.15273,-0.30781 -0.15273,-0.70256 v -3.65846 c 0,-0.57098 -0.0259,-0.84589 -0.0893,-1.16075 l 0.77305,-0.15977 c 0.0728,0.26551 0.0728,0.6532 0.0728,1.15369 v 3.63262 c 0,0.42764 0.0235,0.52398 0.10574,0.59682 0.047,0.0564 0.15978,0.0799 0.24907,0.0564 l 0.12923,0.46054 c -0.15273,0.0634 -0.28196,0.0869 -0.46054,0.0869"
           id="path4785"
           inkscape:connector-curvature="0" />
        <path
           style="fill:#000000;fill-opacity:1;fill-rule:nonzero;stroke:none;stroke-width:0.60152036"
           d="m 465.90583,610.45025 c -0.12923,-0.16213 -0.32425,-0.28196 -0.58037,-0.28196 -0.56393,0 -0.84824,0.45819 -0.84824,1.19364 h 1.67768 c 0,-0.3877 -0.0893,-0.70961 -0.24907,-0.91168 m -1.43566,1.45916 v 0.0963 c 0,0.34541 0.0493,0.61328 0.16918,0.80595 0.20912,0.3219 0.54043,0.47463 0.92578,0.47463 0.38064,0 0.70255,-0.12923 0.99157,-0.38769 l 0.28196,0.44409 c -0.39475,0.34775 -0.86938,0.51458 -1.39337,0.51458 -1.1208,0 -1.80456,-0.81299 -1.80456,-2.13352 0,-0.70255 0.13629,-1.15369 0.48404,-1.56254 0.32191,-0.38065 0.71665,-0.55688 1.21479,-0.55688 0.45114,0 0.81534,0.14568 1.0973,0.43469 0.3548,0.36186 0.48404,0.81535 0.49109,1.74112 v 0.12924 z m 0,0"
           id="path4787"
           inkscape:connector-curvature="0" />
        <path
           style="fill:#000000;fill-opacity:1;fill-rule:nonzero;stroke:none;stroke-width:0.60152036"
           d="m 469.73348,611.77078 c -0.55688,0 -0.89524,0.10573 -1.05502,0.29135 -0.15507,0.17623 -0.21147,0.32191 -0.21147,0.58743 0,0.44409 0.22557,0.70256 0.63677,0.70256 0.3407,0 0.66261,-0.21148 0.84588,-0.53338 l 0.0259,-1.03152 c -0.11279,-0.007 -0.17857,-0.0164 -0.24202,-0.0164 m 0.91168,2.16876 c -0.25141,-0.0963 -0.44409,-0.29841 -0.54042,-0.58037 -0.10574,0.12923 -0.44409,0.53103 -1.14431,0.53103 -0.80594,0 -1.30642,-0.40885 -1.30642,-1.18424 0,-0.93518 0.74955,-1.43332 2.05598,-1.43332 0.0963,0 0.17623,0 0.28196,0.007 v -0.26551 c 0,-0.47699 -0.0658,-0.7989 -0.62972,-0.7989 -0.42764,0 -0.90933,0.21147 -1.24063,0.46054 l -0.33836,-0.53103 c 0.39475,-0.22557 0.90933,-0.53337 1.69178,-0.53337 0.58977,0 1.01506,0.21852 1.17014,0.64381 0.0634,0.17857 0.0799,0.31486 0.0799,0.70961 0,0.29136 -0.0329,0.91167 -0.0329,1.49909 0,0.55688 0.0164,0.78245 0.33131,0.97513 z m 0,0"
           id="path4789"
           inkscape:connector-curvature="0" />
        <path
           style="fill:#000000;fill-opacity:1;fill-rule:nonzero;stroke:none;stroke-width:0.60152036"
           d="m 473.72325,610.38681 c -0.0728,-0.0259 -0.12923,-0.0423 -0.20912,-0.0423 -0.45114,0 -0.83885,0.38065 -0.83885,0.82239 v 2.60346 h -0.74014 v -2.96531 c 0,-0.49109 -0.0564,-0.75895 -0.15274,-1.00802 l 0.71666,-0.18562 c 0.0728,0.15508 0.13628,0.41824 0.13628,0.62032 v 0.0728 c 0.32191,-0.46759 0.66966,-0.70021 1.09496,-0.70021 0.0987,0 0.18562,0.0164 0.25141,0.0399 z m 0,0"
           id="path4791"
           inkscape:connector-curvature="0" />
        <path
           style="fill:#000000;fill-opacity:1;fill-rule:nonzero;stroke:none;stroke-width:0.60152036"
           d="m 476.85773,613.77036 v -2.72329 c 0,-0.3642 -0.0306,-0.49343 -0.12688,-0.62266 -0.0822,-0.10339 -0.22557,-0.15979 -0.4112,-0.15979 -0.29136,0 -0.72605,0.22557 -1.00096,0.51459 v 2.99115 h -0.7331 v -3.00525 c 0,-0.48403 -0.04,-0.66966 -0.15274,-0.96102 l 0.70021,-0.19268 c 0.0963,0.19268 0.13863,0.37125 0.13863,0.62032 0.23262,-0.19268 0.3548,-0.29841 0.52398,-0.39475 0.23262,-0.13628 0.49814,-0.19972 0.74955,-0.19972 0.42765,0 0.80595,0.22557 0.94928,0.57097 0.0658,0.14568 0.0963,0.32191 0.0963,0.50753 v 3.0546 z m 0,0"
           id="path4793"
           inkscape:connector-curvature="0" />
        <path
           style="fill:#000000;fill-opacity:1;fill-rule:nonzero;stroke:none;stroke-width:0.60152036"
           d="m 478.78683,613.77036 v -4.01327 l 0.76364,-0.11983 v 4.1331 z m 0.3783,-4.74637 c -0.29137,0 -0.51694,-0.24202 -0.51694,-0.53103 0,-0.29841 0.23498,-0.54278 0.52399,-0.54278 0.29136,0 0.53103,0.23497 0.53103,0.54278 0,0.28901 -0.23967,0.53103 -0.53808,0.53103"
           id="path4795"
           inkscape:connector-curvature="0" />
        <path
           style="fill:#000000;fill-opacity:1;fill-rule:nonzero;stroke:none;stroke-width:0.60152036"
           d="m 483.04916,613.77036 v -2.72329 c 0,-0.3642 -0.0329,-0.49343 -0.12923,-0.62266 -0.0799,-0.10339 -0.22557,-0.15979 -0.4112,-0.15979 -0.28901,0 -0.72605,0.22557 -0.99862,0.51459 v 2.99115 h -0.7331 v -3.00525 c 0,-0.48403 -0.0399,-0.66966 -0.15273,-0.96102 l 0.70021,-0.19268 c 0.0963,0.19268 0.13628,0.37125 0.13628,0.62032 0.23497,-0.19268 0.35481,-0.29841 0.52399,-0.39475 0.23496,-0.13628 0.50048,-0.19972 0.74954,-0.19972 0.42765,0 0.80594,0.22557 0.95163,0.57097 0.0658,0.14568 0.0963,0.32191 0.0963,0.50753 v 3.0546 z m 0,0"
           id="path4797"
           inkscape:connector-curvature="0" />
        <path
           style="fill:#000000;fill-opacity:1;fill-rule:nonzero;stroke:none;stroke-width:0.60152036"
           d="m 486.33873,610.20118 c -0.47699,0 -0.7331,0.25612 -0.7331,0.77305 0,0.49814 0.26551,0.74955 0.74015,0.74955 0.48403,0 0.7331,-0.26551 0.7331,-0.76599 0,-0.51694 -0.23262,-0.75661 -0.74015,-0.75661 m 1.61893,0.10339 c -0.11983,0 -0.15273,-0.009 -0.3454,-0.0658 0.20912,0.26787 0.28901,0.48403 0.28901,0.7425 0,0.58037 -0.39475,1.25003 -1.44976,1.25003 -0.25141,0.0799 -0.63677,0.26552 -0.63677,0.44175 0,0.12218 0.0963,0.20207 0.28902,0.20207 h 0.62031 c 1.03152,0 1.45916,0.48403 1.45916,1.11375 0,0.86939 -0.71665,1.30408 -1.70117,1.30408 -1.12785,0 -1.77167,-0.39475 -1.77167,-1.06441 0,-0.16683 0.0306,-0.28901 0.0728,-0.40884 l 0.72371,-0.0423 c -0.0306,0.0658 -0.0728,0.19502 -0.0728,0.30546 0,0.42059 0.34775,0.64616 0.97512,0.64616 0.66261,0 0.99156,-0.26552 0.99156,-0.69316 0,-0.3877 -0.3125,-0.61327 -1.11139,-0.61327 -0.28197,0 -0.60388,-0.0235 -0.75661,-0.0399 -0.3548,-0.0399 -0.56627,-0.23967 -0.56627,-0.53808 0,-0.38065 0.33131,-0.54278 0.79184,-0.70961 -0.62266,-0.18562 -0.95162,-0.60387 -0.95162,-1.16074 0,-0.81299 0.62032,-1.35578 1.5461,-1.35578 0.21852,0 0.3877,0.0164 0.62971,0.0893 0.20913,0.0658 0.42765,0.12924 0.60387,0.12924 0.24202,0 0.44409,-0.0799 0.66026,-0.23262 l 0.38066,0.45819 c -0.22557,0.17622 -0.4206,0.24202 -0.66967,0.24202"
           id="path4799"
           inkscape:connector-curvature="0" />
        <path
           style="fill:#000000;fill-opacity:1;fill-rule:nonzero;stroke:none;stroke-width:0.60152036"
           d="m 490.14288,613.27928 c 0,0.32895 -0.24203,0.60387 -0.57333,0.60387 -0.32896,0 -0.57098,-0.27492 -0.57098,-0.60387 0,-0.33131 0.24202,-0.60622 0.57098,-0.60622 0.3313,0 0.57333,0.27491 0.57333,0.60622"
           id="path4801"
           inkscape:connector-curvature="0" />
      </g>
    </g>
  </g>
</svg>
